# xmcd
#
# Track frame offsets: 
#        150
#        14807
#        33022
#        47750
#        67619
#        82913
#        100084
#        116618
#        135037
#        152206
#        168039
#        185210
#
# Disc length: 2617 seconds
#
# Revision: 0
# Processed by: cddbd v1.5.2PL0 Copyright (c) Steve Scherf et al.
# Submitted via: ExactAudioCopy v0.99pb5
#
DISCID=880a370c
DTITLE=Gossip - Music for Men
DYEAR=1900
DGENRE=Alternative
TTITLE0=Dimestore Diamond
TTITLE1=Heavy Cross
TTITLE2=8th Wonder
TTITLE3=Love Long Distance
TTITLE4=Pop Goes the World
TTITLE5=Vertical Rhythm
TTITLE6=Men in Love
TTITLE7=For Keeps
TTITLE8=2012
TTITLE9=Love nad Let Love
TTITLE10=Four Letter Word
TTITLE11=Spare Me From The Mold
EXTD=
EXTT0=
EXTT1=
EXTT2=
EXTT3=
EXTT4=
EXTT5=
EXTT6=
EXTT7=
EXTT8=
EXTT9=
EXTT10=
EXTT11=
PLAYORDER=
